<svg width="111" height="25" viewBox="0 0 111 25" fill="none" xmlns="http://www.w3.org/2000/svg">
<path d="M11.7969 24.5469C8.41146 24.5469 5.65104 23.3906 3.51562 21.0781C1.38021 18.7552 0.3125 15.7396 0.3125 12.0312C0.3125 8.59375 1.38021 5.77604 3.51562 3.57812C5.66146 1.38021 8.41146 0.28125 11.7656 0.28125C12.9531 0.28125 14.1406 0.4375 15.3281 0.75C16.5156 1.0625 17.1198 1.21875 17.1406 1.21875C17.349 1.21875 17.6198 1.17708 17.9531 1.09375C18.2865 1 18.5156 0.953125 18.6406 0.953125C19.1198 0.953125 19.5104 1.35938 19.8125 2.17188C20.125 2.97396 20.2812 4 20.2812 5.25C20.2812 5.70833 20.2031 6.0625 20.0469 6.3125C19.901 6.5625 19.6927 6.6875 19.4219 6.6875C19.0052 6.6875 18.6406 6.29167 18.3281 5.5C18.1198 4.97917 17.9271 4.58333 17.75 4.3125C17.2083 3.52083 16.4479 2.93229 15.4688 2.54688C14.4896 2.15104 13.276 1.95312 11.8281 1.95312C9.17188 1.95312 7.10938 2.75 5.64062 4.34375C4.18229 5.9375 3.45312 8.18229 3.45312 11.0781C3.45312 12.5052 3.61979 13.8906 3.95312 15.2344C4.29688 16.5677 4.78125 17.75 5.40625 18.7812C6.1875 20.0938 7.16146 21.099 8.32812 21.7969C9.50521 22.4948 10.7917 22.8438 12.1875 22.8438C13.7396 22.8438 14.9792 22.3958 15.9062 21.5C16.8333 20.5938 17.2969 19.3906 17.2969 17.8906C17.2969 17.2031 17.2344 16.7188 17.1094 16.4375C16.9948 16.1562 16.7865 15.9792 16.4844 15.9062C16.224 15.8438 15.875 15.7865 15.4375 15.7344C14.4688 15.6198 13.9792 15.2917 13.9688 14.75C13.9688 14.3438 14.3125 14.0521 15 13.875C15.6979 13.6875 16.8594 13.5938 18.4844 13.5938C20.151 13.5938 21.3229 13.6875 22 13.875C22.6875 14.0521 23.0312 14.3438 23.0312 14.75C23.0312 15.2917 22.4375 15.6562 21.25 15.8438C21.0833 15.875 20.9583 15.8958 20.875 15.9062C20.7396 15.9375 20.625 16.026 20.5312 16.1719C20.4375 16.3073 20.3438 16.5365 20.25 16.8594C20.2292 16.9219 20.1302 17.4323 19.9531 18.3906C19.776 19.3385 19.5104 20.1615 19.1562 20.8594C18.5312 22.0677 17.5938 22.9844 16.3438 23.6094C15.1042 24.2344 13.5885 24.5469 11.7969 24.5469ZM27.0156 13.9844H34.9219C35.1615 13.9844 35.3229 13.9427 35.4062 13.8594C35.4896 13.7656 35.5312 13.5938 35.5312 13.3438C35.5312 12.125 35.1198 11.1146 34.2969 10.3125C33.474 9.5 32.4323 9.09375 31.1719 9.09375C30.5052 9.09375 29.8698 9.23958 29.2656 9.53125C28.6719 9.82292 28.1458 10.2396 27.6875 10.7812C27.3229 11.2188 27.026 11.6927 26.7969 12.2031C26.5781 12.7135 26.4688 13.1562 26.4688 13.5312C26.4688 13.6979 26.5052 13.8177 26.5781 13.8906C26.6615 13.9531 26.8073 13.9844 27.0156 13.9844ZM36.8125 15.3281H26.9531C26.7448 15.3281 26.599 15.3698 26.5156 15.4531C26.4427 15.5365 26.4062 15.6979 26.4062 15.9375C26.4062 17.8854 26.9219 19.4844 27.9531 20.7344C28.9844 21.974 30.3021 22.5938 31.9062 22.5938C32.5312 22.5938 33.1354 22.4896 33.7188 22.2812C34.3125 22.0729 34.849 21.7708 35.3281 21.375C35.5781 21.1771 35.9219 20.8281 36.3594 20.3281C36.8073 19.8281 37.1823 19.5781 37.4844 19.5781C37.6615 19.5781 37.8073 19.6354 37.9219 19.75C38.0365 19.8542 38.0938 19.9896 38.0938 20.1562C38.0938 20.3854 38.0208 20.6406 37.875 20.9219C37.7396 21.1927 37.5417 21.474 37.2812 21.7656C36.5 22.6302 35.5938 23.2917 34.5625 23.75C33.5417 24.1979 32.4427 24.4219 31.2656 24.4219C29.0365 24.4219 27.1875 23.651 25.7188 22.1094C24.2604 20.5573 23.5312 18.6042 23.5312 16.25C23.5312 13.75 24.2969 11.6823 25.8281 10.0469C27.3594 8.40104 29.2812 7.57812 31.5938 7.57812C33.5938 7.57812 35.1823 8.14062 36.3594 9.26562C37.5365 10.3906 38.125 11.9115 38.125 13.8281C38.125 14.4531 38.0573 14.8594 37.9219 15.0469C37.7865 15.2344 37.4167 15.3281 36.8125 15.3281ZM44.4688 10.0781C44.4688 10.2656 44.4844 10.3906 44.5156 10.4531C44.5469 10.5052 44.5938 10.5312 44.6562 10.5312C44.8021 10.5312 45.0052 10.3542 45.2656 10C45.3802 9.84375 45.4635 9.72917 45.5156 9.65625C46.0885 8.94792 46.6979 8.42188 47.3438 8.07812C47.9896 7.72396 48.6927 7.54688 49.4531 7.54688C50.224 7.54688 50.9271 7.70312 51.5625 8.01562C52.1979 8.31771 52.7448 8.76042 53.2031 9.34375C53.3906 9.58333 53.5729 9.88542 53.75 10.25C53.9271 10.6042 54.0625 10.7812 54.1562 10.7812C54.3333 10.7812 54.5521 10.5781 54.8125 10.1719C54.9792 9.91146 55.125 9.69792 55.25 9.53125C55.7917 8.84375 56.3802 8.34375 57.0156 8.03125C57.6615 7.70833 58.4062 7.54688 59.25 7.54688C60.375 7.54688 61.3542 7.8125 62.1875 8.34375C63.0312 8.86458 63.6302 9.59375 63.9844 10.5312C64.2031 11.0938 64.3594 11.7448 64.4531 12.4844C64.5469 13.224 64.5938 14.276 64.5938 15.6406V18.4062C64.5938 19.8229 64.625 20.776 64.6875 21.2656C64.75 21.7552 64.8542 22.0677 65 22.2031C65.1146 22.3073 65.3906 22.4271 65.8281 22.5625C66.2656 22.6979 66.4844 22.901 66.4844 23.1719C66.4844 23.5052 66.2344 23.75 65.7344 23.9062C65.2448 24.0521 64.4479 24.125 63.3438 24.125C62.2396 24.125 61.4375 24.0521 60.9375 23.9062C60.4479 23.75 60.2031 23.5052 60.2031 23.1719C60.2031 22.901 60.4427 22.6927 60.9219 22.5469C61.4115 22.3906 61.7188 22.2135 61.8438 22.0156C61.9479 21.8281 62.0208 21.2812 62.0625 20.375C62.1042 19.4688 62.125 17.7448 62.125 15.2031C62.125 13.2344 61.8802 11.8281 61.3906 10.9844C60.901 10.1302 60.1042 9.70312 59 9.70312C58.2292 9.70312 57.4531 9.95833 56.6719 10.4688C55.8906 10.9792 55.2865 11.6302 54.8594 12.4219C54.7344 12.6615 54.6458 13.0885 54.5938 13.7031C54.5417 14.3177 54.5156 15.4375 54.5156 17.0625V18.4062C54.5156 19.8229 54.5469 20.776 54.6094 21.2656C54.6719 21.7552 54.776 22.0677 54.9219 22.2031C55.0365 22.3073 55.3177 22.4271 55.7656 22.5625C56.2135 22.6979 56.4375 22.901 56.4375 23.1719C56.4375 23.5052 56.1927 23.75 55.7031 23.9062C55.2135 24.0521 54.4219 24.125 53.3281 24.125C52.2448 24.125 51.4583 24.0521 50.9688 23.9062C50.4896 23.75 50.25 23.5052 50.25 23.1719C50.25 22.901 50.4896 22.6927 50.9688 22.5469C51.4583 22.3906 51.7656 22.2135 51.8906 22.0156C51.9948 21.849 52.0677 21.3854 52.1094 20.625C52.151 19.8646 52.1719 18.0573 52.1719 15.2031C52.1719 13.2344 51.9219 11.8281 51.4219 10.9844C50.9323 10.1302 50.1302 9.70312 49.0156 9.70312C48.2552 9.70312 47.474 9.96354 46.6719 10.4844C45.8802 11.0052 45.2604 11.6615 44.8125 12.4531C44.6979 12.6615 44.6146 12.9375 44.5625 13.2812C44.5208 13.625 44.5 14.2031 44.5 15.0156V15.7188C44.5 18.0625 44.5208 19.6562 44.5625 20.5C44.6042 21.3333 44.6771 21.8385 44.7812 22.0156C44.9062 22.2135 45.2083 22.3906 45.6875 22.5469C46.1771 22.6927 46.4219 22.901 46.4219 23.1719C46.4219 23.5052 46.1719 23.75 45.6719 23.9062C45.1823 24.0521 44.3854 24.125 43.2812 24.125C42.1667 24.125 41.3594 24.0521 40.8594 23.9062C40.3594 23.75 40.1094 23.5052 40.1094 23.1719C40.1094 22.901 40.349 22.6927 40.8281 22.5469C41.3177 22.3906 41.625 22.2135 41.75 22.0156C41.8646 21.8073 41.9427 21.2396 41.9844 20.3125C42.0365 19.375 42.0625 17.8438 42.0625 15.7188C42.0625 14.1042 42.026 12.8542 41.9531 11.9688C41.8906 11.0833 41.7917 10.5417 41.6562 10.3438C41.5625 10.1979 41.2396 10.0885 40.6875 10.0156C40.1354 9.93229 39.8594 9.70833 39.8594 9.34375C39.8594 8.96875 40.2969 8.57812 41.1719 8.17188C42.0573 7.75521 42.901 7.54688 43.7031 7.54688C43.9844 7.54688 44.1823 7.63021 44.2969 7.79688C44.4115 7.96354 44.4688 8.27604 44.4688 8.73438V10.0781ZM72.1875 10.0781C72.1875 10.2656 72.2031 10.3906 72.2344 10.4531C72.2656 10.5052 72.3125 10.5312 72.375 10.5312C72.5208 10.5312 72.724 10.3542 72.9844 10C73.099 9.84375 73.1823 9.72917 73.2344 9.65625C73.8073 8.94792 74.4167 8.42188 75.0625 8.07812C75.7083 7.72396 76.4115 7.54688 77.1719 7.54688C77.9427 7.54688 78.6458 7.70312 79.2812 8.01562C79.9167 8.31771 80.4635 8.76042 80.9219 9.34375C81.1094 9.58333 81.2917 9.88542 81.4688 10.25C81.6458 10.6042 81.7812 10.7812 81.875 10.7812C82.0521 10.7812 82.2708 10.5781 82.5312 10.1719C82.6979 9.91146 82.8438 9.69792 82.9688 9.53125C83.5104 8.84375 84.099 8.34375 84.7344 8.03125C85.3802 7.70833 86.125 7.54688 86.9688 7.54688C88.0938 7.54688 89.0729 7.8125 89.9062 8.34375C90.75 8.86458 91.349 9.59375 91.7031 10.5312C91.9219 11.0938 92.0781 11.7448 92.1719 12.4844C92.2656 13.224 92.3125 14.276 92.3125 15.6406V18.4062C92.3125 19.8229 92.3438 20.776 92.4062 21.2656C92.4688 21.7552 92.5729 22.0677 92.7188 22.2031C92.8333 22.3073 93.1094 22.4271 93.5469 22.5625C93.9844 22.6979 94.2031 22.901 94.2031 23.1719C94.2031 23.5052 93.9531 23.75 93.4531 23.9062C92.9635 24.0521 92.1667 24.125 91.0625 24.125C89.9583 24.125 89.1562 24.0521 88.6562 23.9062C88.1667 23.75 87.9219 23.5052 87.9219 23.1719C87.9219 22.901 88.1615 22.6927 88.6406 22.5469C89.1302 22.3906 89.4375 22.2135 89.5625 22.0156C89.6667 21.8281 89.7396 21.2812 89.7812 20.375C89.8229 19.4688 89.8438 17.7448 89.8438 15.2031C89.8438 13.2344 89.599 11.8281 89.1094 10.9844C88.6198 10.1302 87.8229 9.70312 86.7188 9.70312C85.9479 9.70312 85.1719 9.95833 84.3906 10.4688C83.6094 10.9792 83.0052 11.6302 82.5781 12.4219C82.4531 12.6615 82.3646 13.0885 82.3125 13.7031C82.2604 14.3177 82.2344 15.4375 82.2344 17.0625V18.4062C82.2344 19.8229 82.2656 20.776 82.3281 21.2656C82.3906 21.7552 82.4948 22.0677 82.6406 22.2031C82.7552 22.3073 83.0365 22.4271 83.4844 22.5625C83.9323 22.6979 84.1562 22.901 84.1562 23.1719C84.1562 23.5052 83.9115 23.75 83.4219 23.9062C82.9323 24.0521 82.1406 24.125 81.0469 24.125C79.9635 24.125 79.1771 24.0521 78.6875 23.9062C78.2083 23.75 77.9688 23.5052 77.9688 23.1719C77.9688 22.901 78.2083 22.6927 78.6875 22.5469C79.1771 22.3906 79.4844 22.2135 79.6094 22.0156C79.7135 21.849 79.7865 21.3854 79.8281 20.625C79.8698 19.8646 79.8906 18.0573 79.8906 15.2031C79.8906 13.2344 79.6406 11.8281 79.1406 10.9844C78.651 10.1302 77.849 9.70312 76.7344 9.70312C75.974 9.70312 75.1927 9.96354 74.3906 10.4844C73.599 11.0052 72.9792 11.6615 72.5312 12.4531C72.4167 12.6615 72.3333 12.9375 72.2812 13.2812C72.2396 13.625 72.2188 14.2031 72.2188 15.0156V15.7188C72.2188 18.0625 72.2396 19.6562 72.2812 20.5C72.3229 21.3333 72.3958 21.8385 72.5 22.0156C72.625 22.2135 72.9271 22.3906 73.4062 22.5469C73.8958 22.6927 74.1406 22.901 74.1406 23.1719C74.1406 23.5052 73.8906 23.75 73.3906 23.9062C72.901 24.0521 72.1042 24.125 71 24.125C69.8854 24.125 69.0781 24.0521 68.5781 23.9062C68.0781 23.75 67.8281 23.5052 67.8281 23.1719C67.8281 22.901 68.0677 22.6927 68.5469 22.5469C69.0365 22.3906 69.3438 22.2135 69.4688 22.0156C69.5833 21.8073 69.6615 21.2396 69.7031 20.3125C69.7552 19.375 69.7812 17.8438 69.7812 15.7188C69.7812 14.1042 69.7448 12.8542 69.6719 11.9688C69.6094 11.0833 69.5104 10.5417 69.375 10.3438C69.2812 10.1979 68.9583 10.0885 68.4062 10.0156C67.8542 9.93229 67.5781 9.70833 67.5781 9.34375C67.5781 8.96875 68.0156 8.57812 68.8906 8.17188C69.776 7.75521 70.6198 7.54688 71.4219 7.54688C71.7031 7.54688 71.901 7.63021 72.0156 7.79688C72.1302 7.96354 72.1875 8.27604 72.1875 8.73438V10.0781ZM106.297 14.5C106.307 14.375 106.312 14.2448 106.312 14.1094C106.323 13.974 106.328 13.7708 106.328 13.5C106.328 11.9062 106.078 10.7656 105.578 10.0781C105.078 9.38021 104.266 9.03125 103.141 9.03125C102.568 9.03125 102.052 9.14062 101.594 9.35938C101.135 9.57812 100.708 9.91667 100.312 10.375C100.229 10.4792 100.104 10.6406 99.9375 10.8594C99.4167 11.599 98.8906 11.9688 98.3594 11.9688C98.0365 11.9688 97.776 11.8698 97.5781 11.6719C97.3802 11.474 97.2812 11.2083 97.2812 10.875C97.2812 10.1042 97.875 9.38021 99.0625 8.70312C100.26 8.02604 101.63 7.6875 103.172 7.6875C105.099 7.6875 106.521 8.16667 107.438 9.125C108.365 10.0833 108.828 11.5729 108.828 13.5938C108.828 14.1771 108.818 14.9531 108.797 15.9219C108.776 16.8906 108.766 17.5677 108.766 17.9531C108.766 19.849 108.812 21.0573 108.906 21.5781C109.01 22.0885 109.188 22.3438 109.438 22.3438C109.542 22.3438 109.672 22.3281 109.828 22.2969C109.995 22.2552 110.099 22.2344 110.141 22.2344C110.286 22.2344 110.396 22.2812 110.469 22.375C110.552 22.4583 110.594 22.5729 110.594 22.7188C110.594 23.0833 110.354 23.4531 109.875 23.8281C109.396 24.2031 108.896 24.3906 108.375 24.3906C107.76 24.3906 107.089 23.724 106.359 22.3906C106.297 22.276 106.245 22.1823 106.203 22.1094H105.984C105.266 22.8281 104.505 23.3594 103.703 23.7031C102.901 24.0469 102.016 24.2188 101.047 24.2188C99.5052 24.2188 98.2708 23.8021 97.3438 22.9688C96.4271 22.1354 95.9688 21.0156 95.9688 19.6094C95.9688 17.9427 96.5781 16.6406 97.7969 15.7031C99.026 14.7656 100.74 14.2969 102.938 14.2969C103.49 14.2969 104.042 14.3177 104.594 14.3594C105.156 14.3906 105.724 14.4375 106.297 14.5ZM106.297 15.875C105.745 15.7812 105.234 15.7135 104.766 15.6719C104.307 15.6302 103.88 15.6094 103.484 15.6094C101.901 15.6094 100.698 15.9323 99.875 16.5781C99.0625 17.224 98.6562 18.1615 98.6562 19.3906C98.6562 20.4115 98.9427 21.2135 99.5156 21.7969C100.099 22.3698 100.901 22.6562 101.922 22.6562C103.224 22.6562 104.276 22.2552 105.078 21.4531C105.891 20.6406 106.297 19.5677 106.297 18.2344V15.875Z" fill="currentColor"/>
</svg>
